<svg width="1000" height="1000" viewBox="0 0 1000 1000" fill="none" xmlns="http://www.w3.org/2000/svg">
<rect width="1000" height="1000" rx="100" fill="#185902"/>
<rect x="150" y="150" width="700" height="700" rx="100" fill="white"/>
<path d="M760.008 614.642H752.403C746.913 614.642 742.413 610.142 742.413 604.674C742.413 601.884 743.605 599.364 745.405 597.564L750.715 592.277C754.608 588.384 754.608 581.972 750.715 578.102L736.608 563.972C732.715 560.079 726.303 560.079 722.433 563.972L717.303 569.079C715.503 571.104 712.893 572.274 710.013 572.274C704.523 572.274 700.023 567.774 700.023 562.284V554.679C700.023 549.189 695.523 544.689 690.033 544.689H670.008C664.54 544.689 660.04 549.189 660.04 554.679V562.284C660.04 567.774 655.54 572.274 650.05 572.274C647.125 572.274 644.538 571.082 642.738 569.079L637.63 563.972C633.738 560.079 627.325 560.079 623.455 563.972L609.325 578.079C605.433 581.972 605.433 588.384 609.325 592.254C611.215 594.167 613.33 595.967 615.13 597.969C616.93 600.062 617.605 601.862 617.605 604.674C617.605 610.164 613.105 614.664 607.638 614.664H600.033C594.543 614.664 590.043 619.164 590.043 624.654V644.679C590.043 650.147 594.543 654.647 600.033 654.647H607.638C613.128 654.647 617.628 659.147 617.628 664.637C617.628 667.449 616.908 669.249 615.108 671.387C613.308 673.367 611.215 675.167 609.303 677.057C605.41 680.949 605.41 687.362 609.303 691.232L623.41 705.362C627.303 709.254 633.715 709.254 637.585 705.362L642.715 700.254C644.515 698.229 647.125 697.059 650.005 697.059C655.473 697.059 659.973 701.559 659.973 707.072V714.677C659.973 720.167 664.473 724.667 669.963 724.667H689.988C695.455 724.667 699.955 720.167 699.955 714.677V707.072C699.955 701.582 704.455 697.082 709.945 697.082C712.87 697.082 715.435 698.297 717.235 700.299L722.343 705.407C726.235 709.299 732.648 709.299 736.518 705.407L750.648 691.299C754.54 687.407 754.54 680.994 750.648 677.124L745.338 671.792C743.538 669.992 742.345 667.517 742.345 664.682C742.345 659.192 746.845 654.692 752.335 654.692H759.94C765.43 654.692 769.93 650.192 769.93 644.702V624.677C769.93 619.277 765.43 614.777 759.94 614.777L760.008 614.642ZM679.998 664.682C663.393 664.682 650.005 651.272 650.005 634.689C650.005 618.084 663.415 604.697 679.998 604.697C696.58 604.697 709.99 618.107 709.99 634.689C709.99 651.294 696.603 664.682 679.998 664.682Z" fill="#185902"/>
<path d="M725 319.667H522.5C522.5 294.917 502.475 274.892 477.725 274.667H275C250.25 274.667 230 294.917 230 319.667V679.667C230 704.417 250.25 724.667 275 724.667H522.5C534.875 724.667 545 714.542 545 702.167C545 689.792 534.875 679.667 522.5 679.667H286.25C279.95 679.667 275 674.717 275 668.417V330.917C275 324.617 279.95 319.667 286.25 319.667H466.25C472.55 319.667 477.5 324.617 477.5 330.917V409.667C477.5 434.417 497.75 454.667 522.5 454.667H713.75C720.05 454.667 725 459.617 725 465.917V477.167C725 489.542 735.125 499.667 747.5 499.667C759.875 499.667 770 489.542 770 477.167V363.767C769.55 339.467 749.525 319.667 725 319.667ZM713.75 409.667H533.75C527.45 409.667 522.5 404.717 522.5 398.417V375.917C522.5 369.617 527.45 364.667 533.75 364.667H713.75C720.05 364.667 725 369.617 725 375.917V398.417C725 404.717 720.05 409.667 713.75 409.667Z" fill="#185902"/>
</svg>
