<svg width="207" height="55" viewBox="0 0 207 55" fill="none" xmlns="http://www.w3.org/2000/svg">
<path d="M29.0826 55.0004C-5.69388 38.3116 -1.09699 16.2266 2.30071 9.73096C1.70112 26.4197 11.6944 25.5203 14.2926 26.1199C16.8909 26.7195 22.8868 30.1172 23.1866 31.6162C23.4864 33.1152 19.7889 33.2388 17.8902 32.8154C17.2582 32.6744 16.4159 32.3531 15.5917 32.3157C13.9397 32.2406 12.0941 33.415 12.6937 36.0132C13.2933 38.6114 14.3925 42.4089 21.9874 47.0058C24.2593 48.3809 26.4654 49.3977 27.5836 50.4035C29.2825 51.6027 29.4824 53.2016 29.0826 55.0004Z" fill="#175902"/>
<path d="M14.6926 38.2111C16.7912 41.0092 18.1702 44.602 29.0829 48.5041C29.0829 48.5041 29.3827 45.0065 25.3854 43.9072C21.3881 42.808 17.0024 40.5929 14.6926 38.2111Z" fill="#175902"/>
<path d="M27.0843 42.5082C20.8852 40.6193 18.2285 39.3575 15.8918 36.5122C18.4938 37.9487 18.8898 38.2111 23.1869 38.9106C27.484 39.6101 27.0843 42.5082 27.0843 42.5082Z" fill="#175902"/>
<path d="M49.4688 17.0008C47.4701 3.73464 33.7794 4.83388 29.0826 12.5038C20.8881 0.936518 4.39925 8.43146 9.7956 24.6205C4.79898 22.5219 2.20072 16.8258 3.20005 8.13166C10.1953 -2.46121 22.1872 -1.76166 29.0826 4.83388C30.8814 2.53543 34.1791 0.93651 37.277 0.536765C42.3736 1.23632 50.5681 5.13369 49.4688 17.0008Z" fill="#0517C9"/>
<path d="M31.381 54.9C33.6794 33.5144 29.882 21.1228 15.1919 11.6292C15.1919 11.6292 21.8874 7.73182 28.383 15.0269C31.7392 18.7961 33.4795 22.9216 36.5774 25.0201C38.7803 26.5124 43.8725 29.1174 48.0697 23.6211C49.7195 21.4605 50.8092 16.3254 50.0683 11.6292C48.5693 2.12722 39.1757 0.236888 39.1757 0.236888C62.8597 -1.16218 68.356 37.8115 31.381 54.9Z" fill="#F69204"/>
<circle cx="41.2744" cy="18.6245" r="5.29642" fill="#F69204"/>
<path d="M69.39 35V34.25H82.08C83.08 34.25 83.92 33.96 84.6 33.38C85.3 32.8 85.84 32.03 86.22 31.07C86.6 30.11 86.8 29.07 86.82 27.95H87.87V35H69.39ZM72.93 34.55V12.38H76.95V34.55H72.93ZM69.39 13.13V12.38H80.58V13.13H69.39ZM90.4109 44.78C89.9109 44.78 89.5209 44.68 89.2409 44.48C88.9609 44.28 88.7609 44.04 88.6409 43.76C88.5409 43.48 88.4909 43.22 88.4909 42.98C88.4909 42.5 88.6309 42.11 88.9109 41.81C89.2109 41.53 89.5809 41.39 90.0209 41.39C90.4209 41.39 90.7309 41.48 90.9509 41.66C91.1709 41.86 91.3509 42.05 91.4909 42.23C91.6509 42.43 91.8209 42.53 92.0009 42.53C92.1609 42.53 92.2809 42.46 92.3609 42.32C92.4609 42.18 92.5409 42.02 92.6009 41.84L99.7109 22.04H100.791L93.5909 41.48C93.0909 42.82 92.5709 43.7 92.0309 44.12C91.4909 44.56 90.9509 44.78 90.4109 44.78ZM95.2709 34.55L89.3609 21.8L92.9909 21.62L96.6809 30.23H96.8609L95.2709 34.55ZM87.8009 22.25V21.5H95.2409V22.25H87.8009ZM97.4009 22.25V21.5H103.041V22.25H97.4009ZM106.201 35V20.66C106.201 18.72 106.381 17.12 106.741 15.86C107.121 14.58 107.691 13.63 108.451 13.01C109.211 12.37 110.171 12.05 111.331 12.05C112.351 12.05 113.151 12.27 113.731 12.71C114.331 13.15 114.631 13.73 114.631 14.45C114.631 14.97 114.471 15.39 114.151 15.71C113.851 16.03 113.451 16.19 112.951 16.19C112.511 16.19 112.151 16.06 111.871 15.8C111.591 15.54 111.451 15.2 111.451 14.78C111.451 14.54 111.481 14.35 111.541 14.21C111.621 14.07 111.691 13.94 111.751 13.82C111.831 13.68 111.871 13.53 111.871 13.37C111.871 13.03 111.641 12.86 111.181 12.86C110.581 12.86 110.151 13.14 109.891 13.7C109.631 14.24 109.501 15.16 109.501 16.46V35H106.201ZM103.291 35V34.25H112.891V35H103.291ZM103.291 22.25V21.5H113.191V22.25H103.291ZM121.224 35.36C120.264 35.36 119.354 35.17 118.494 34.79C117.654 34.39 116.914 33.86 116.274 33.2C115.634 32.52 115.134 31.76 114.774 30.92C114.414 30.06 114.234 29.17 114.234 28.25C114.234 27.03 114.514 25.88 115.074 24.8C115.654 23.72 116.454 22.84 117.474 22.16C118.494 21.48 119.694 21.14 121.074 21.14C122.154 21.14 123.124 21.39 123.984 21.89C124.864 22.37 125.554 23.05 126.054 23.93C126.554 24.81 126.804 25.82 126.804 26.96V27.14H116.994V26.39H123.324V24.68C123.324 22.86 122.524 21.95 120.924 21.95C120.264 21.95 119.724 22.15 119.304 22.55C118.904 22.93 118.604 23.58 118.404 24.5C118.224 25.42 118.134 26.67 118.134 28.25C118.134 29.87 118.234 31.13 118.434 32.03C118.634 32.93 118.964 33.56 119.424 33.92C119.904 34.28 120.534 34.46 121.314 34.46C122.374 34.46 123.294 34.19 124.074 33.65C124.854 33.11 125.514 32.17 126.054 30.83H126.894C126.494 32.23 125.784 33.34 124.764 34.16C123.764 34.96 122.584 35.36 121.224 35.36Z" fill="#F69204"/>
<path d="M136.64 35.36C135.56 35.36 134.63 35.21 133.85 34.91C133.09 34.61 132.34 34.17 131.6 33.59L130.52 35H129.77V28.7H130.55C130.79 29.66 131.16 30.58 131.66 31.46C132.16 32.32 132.83 33.03 133.67 33.59C134.53 34.15 135.6 34.43 136.88 34.43C138.02 34.43 138.96 34.22 139.7 33.8C140.46 33.36 141.02 32.81 141.38 32.15C141.76 31.47 141.95 30.77 141.95 30.05C141.95 29.41 141.81 28.85 141.53 28.37C141.27 27.89 140.88 27.48 140.36 27.14C139.84 26.78 139.23 26.47 138.53 26.21C137.83 25.95 137.04 25.72 136.16 25.52C134.72 25.18 133.54 24.7 132.62 24.08C131.72 23.46 131.05 22.71 130.61 21.83C130.17 20.93 129.95 19.89 129.95 18.71C129.95 17.25 130.27 16.03 130.91 15.05C131.55 14.05 132.39 13.3 133.43 12.8C134.47 12.28 135.58 12.02 136.76 12.02C137.72 12.02 138.55 12.16 139.25 12.44C139.97 12.7 140.7 13.12 141.44 13.7L142.22 12.38H142.97V18.5L142.22 18.53C141.74 16.63 141.03 15.22 140.09 14.3C139.15 13.38 138 12.92 136.64 12.92C135.82 12.92 135.05 13.09 134.33 13.43C133.63 13.77 133.07 14.23 132.65 14.81C132.23 15.37 132.02 16.02 132.02 16.76C132.02 17.38 132.15 17.9 132.41 18.32C132.67 18.72 133.04 19.06 133.52 19.34C134 19.62 134.56 19.86 135.2 20.06C135.86 20.26 136.58 20.47 137.36 20.69C138.8 21.07 140 21.57 140.96 22.19C141.92 22.79 142.64 23.57 143.12 24.53C143.62 25.47 143.87 26.64 143.87 28.04C143.87 30.3 143.24 32.09 141.98 33.41C140.74 34.71 138.96 35.36 136.64 35.36ZM157.257 34.55V24.41C157.257 23.65 157.087 23.09 156.747 22.73C156.427 22.35 155.967 22.16 155.367 22.16C154.687 22.16 154.057 22.43 153.477 22.97C152.917 23.51 152.467 24.25 152.127 25.19C151.807 26.11 151.647 27.16 151.647 28.34L151.047 23.99H151.767C152.207 23.17 152.797 22.49 153.537 21.95C154.277 21.41 155.237 21.14 156.417 21.14C157.637 21.14 158.627 21.46 159.387 22.1C160.167 22.72 160.557 23.49 160.557 24.41V34.55H157.257ZM145.977 35V34.25H153.597V35H145.977ZM154.977 35V34.25H162.597V35H154.977ZM148.347 34.55V12.86H151.647V34.55H148.347ZM145.977 13.13V12.38H151.647V13.13H145.977ZM168.138 35.36C167.058 35.36 166.178 35.05 165.498 34.43C164.818 33.81 164.478 33 164.478 32C164.478 31.04 164.798 30.22 165.438 29.54C166.098 28.86 167.028 28.34 168.228 27.98C169.428 27.6 170.848 27.41 172.488 27.41V23.75C172.488 23.23 172.288 22.82 171.888 22.52C171.488 22.22 170.938 22.07 170.238 22.07C169.638 22.07 169.148 22.17 168.768 22.37C168.388 22.57 168.198 22.83 168.198 23.15C168.198 23.35 168.268 23.53 168.408 23.69C168.548 23.85 168.618 24.1 168.618 24.44C168.618 24.86 168.458 25.21 168.138 25.49C167.838 25.75 167.448 25.88 166.968 25.88C166.488 25.88 166.108 25.74 165.828 25.46C165.548 25.16 165.408 24.79 165.408 24.35C165.408 23.75 165.648 23.21 166.128 22.73C166.608 22.23 167.258 21.84 168.078 21.56C168.898 21.28 169.818 21.14 170.838 21.14C172.298 21.14 173.488 21.43 174.408 22.01C175.328 22.57 175.788 23.31 175.788 24.23V33.35C175.788 33.55 175.848 33.72 175.968 33.86C176.108 33.98 176.268 34.04 176.448 34.04C176.628 34.04 176.838 33.95 177.078 33.77C177.318 33.57 177.618 33.27 177.978 32.87L178.398 33.35C177.458 34.69 176.408 35.36 175.248 35.36C174.548 35.36 173.968 35.17 173.508 34.79C173.068 34.39 172.768 33.84 172.608 33.14H172.488C172.108 33.78 171.508 34.31 170.688 34.73C169.868 35.15 169.018 35.36 168.138 35.36ZM169.938 33.71C170.698 33.71 171.308 33.43 171.768 32.87C172.248 32.29 172.488 31.54 172.488 30.62V28.19C170.988 28.19 169.858 28.47 169.098 29.03C168.338 29.57 167.958 30.37 167.958 31.43C167.958 32.15 168.128 32.71 168.468 33.11C168.828 33.51 169.318 33.71 169.938 33.71ZM179.264 35V34.25H181.634V22.25H179.264V21.5H184.934V23.87H185.054C185.554 22.79 186.124 22.07 186.764 21.71C187.424 21.33 188.034 21.14 188.594 21.14C189.234 21.14 189.734 21.33 190.094 21.71C190.474 22.07 190.664 22.59 190.664 23.27C190.664 23.89 190.474 24.35 190.094 24.65C189.734 24.93 189.324 25.07 188.864 25.07C188.484 25.07 188.134 24.97 187.814 24.77C187.514 24.55 187.364 24.25 187.364 23.87C187.364 23.75 187.374 23.65 187.394 23.57C187.434 23.47 187.454 23.37 187.454 23.27C187.454 23.17 187.424 23.08 187.364 23C187.304 22.92 187.174 22.88 186.974 22.88C186.714 22.88 186.424 23.09 186.104 23.51C185.784 23.91 185.504 24.46 185.264 25.16C185.044 25.84 184.934 26.6 184.934 27.44V34.25H187.634V35H179.264ZM199.359 35.36C198.399 35.36 197.489 35.17 196.629 34.79C195.789 34.39 195.049 33.86 194.409 33.2C193.769 32.52 193.269 31.76 192.909 30.92C192.549 30.06 192.369 29.17 192.369 28.25C192.369 27.03 192.649 25.88 193.209 24.8C193.789 23.72 194.589 22.84 195.609 22.16C196.629 21.48 197.829 21.14 199.209 21.14C200.289 21.14 201.259 21.39 202.119 21.89C202.999 22.37 203.689 23.05 204.189 23.93C204.689 24.81 204.939 25.82 204.939 26.96V27.14H195.129V26.39H201.459V24.68C201.459 22.86 200.659 21.95 199.059 21.95C198.399 21.95 197.859 22.15 197.439 22.55C197.039 22.93 196.739 23.58 196.539 24.5C196.359 25.42 196.269 26.67 196.269 28.25C196.269 29.87 196.369 31.13 196.569 32.03C196.769 32.93 197.099 33.56 197.559 33.92C198.039 34.28 198.669 34.46 199.449 34.46C200.509 34.46 201.429 34.19 202.209 33.65C202.989 33.11 203.649 32.17 204.189 30.83H205.029C204.629 32.23 203.919 33.34 202.899 34.16C201.899 34.96 200.719 35.36 199.359 35.36Z" fill="#175902"/>
</svg>
