<svg width="60" height="57" viewBox="0 0 60 57" fill="none" xmlns="http://www.w3.org/2000/svg">
<path d="M30.0826 55.9999C-4.69388 39.3112 -0.0969934 17.2261 3.30071 10.7305C2.70112 27.4192 12.6944 26.5198 15.2926 27.1194C17.8909 27.719 23.8868 31.1167 24.1866 32.6157C24.4864 34.1147 20.7889 34.2383 18.8902 33.8149C18.2582 33.6739 17.4159 33.3527 16.5917 33.3152C14.9397 33.2401 13.0941 34.4145 13.6937 37.0127C14.2933 39.611 15.3925 43.4084 22.9874 48.0053C25.2593 49.3804 27.4654 50.3972 28.5836 51.403C30.2825 52.6022 30.4824 54.2011 30.0826 55.9999Z" fill="#175902" stroke="#175902" stroke-miterlimit="16"/>
<path d="M15.6924 39.2115C17.791 42.0097 19.1699 45.6025 30.0827 49.5046C30.0827 49.5046 30.3825 46.007 26.3852 44.9077C22.3879 43.8084 18.0021 41.5934 15.6924 39.2115Z" fill="#175902"/>
<path d="M28.084 43.5086C21.8849 41.6198 19.2283 40.358 16.8916 37.5127C19.4935 38.9491 19.8895 39.2115 24.1866 39.9111C28.4837 40.6106 28.084 43.5086 28.084 43.5086Z" fill="#175902"/>
<path d="M15.6924 39.2115C17.791 42.0097 19.1699 45.6025 30.0827 49.5046C30.0827 49.5046 30.3825 46.007 26.3852 44.9077C22.3879 43.8084 18.0021 41.5934 15.6924 39.2115Z" stroke="#175902" stroke-miterlimit="16" stroke-linejoin="round"/>
<path d="M28.084 43.5086C21.8849 41.6198 19.2283 40.358 16.8916 37.5127C19.4935 38.9491 19.8895 39.2115 24.1866 39.9111C28.4837 40.6106 28.084 43.5086 28.084 43.5086Z" stroke="#175902" stroke-miterlimit="16" stroke-linejoin="round"/>
<path d="M50.4686 18.0008C48.4699 4.73464 34.7792 5.83388 30.0823 13.5038C21.8879 1.93652 5.399 9.43146 10.7954 25.6205C5.79874 23.5219 3.20048 17.8258 4.1998 9.13166C11.1951 -1.46121 23.187 -0.761659 30.0823 5.83388C31.8811 3.53543 35.1789 1.93651 38.2768 1.53677C43.3733 2.23632 51.5678 6.13369 50.4686 18.0008Z" fill="#0517C9" stroke="#0517C9" stroke-miterlimit="16"/>
<path d="M32.381 55.9C34.6794 34.5144 30.882 22.1228 16.1919 12.6292C16.1919 12.6292 22.8874 8.73182 29.383 16.0269C32.7392 19.7961 34.4795 23.9216 37.5774 26.0201C39.7803 27.5124 44.8725 30.1174 49.0697 24.6211C50.7195 22.4605 51.8092 17.3254 51.0683 12.6292C49.5693 3.12722 40.1757 1.23689 40.1757 1.23689C63.8597 -0.162175 69.356 38.8115 32.381 55.9Z" fill="#F69204" stroke="#F69204" stroke-miterlimit="16"/>
<circle cx="42.2744" cy="19.6245" r="5.29642" fill="#F69204"/>
</svg>
